{"title":"Coasts - A Rush of Blood (2014.Folk Rock)","uid":11470426,"size":158706287,"categoryP":"video","categoryS":"music_videos","magnet":"?xt=urn:btih:5bd3c72df4fe137754eb9efab3360dc89d1572d5&amp;dn=Coasts+-+A+Rush+of+Blood+%282014.Folk+Rock%29&amp;tr=udp%3A%2F%2Ftracker.openbittorrent.com%3A80&amp;tr=udp%3A%2F%2Fopen.demonii.com%3A1337&amp;tr=udp%3A%2F%2Ftracker.coppersurfer.tk%3A6969&amp;tr=udp%3A%2F%2Fexodus.desync.com%3A6969","seeders":3,"leechers":0,"uploader":"MeRaDil","files":-1,"time":1416076178,"description":"COASTS - A RUSH OF BLOOD\n\n &lt;a href=&quot;\nhttp://gifyu.com/images/coasts.png&quot; rel=&quot;nofollow&quot; target=&quot;_NEW&quot;&gt;\nhttp://gifyu.com/images/coasts.png&lt;/a&gt;\n\nMPEG4 MUSIC VID\nGeneral\nCoasts - A Rush of Blood\nFormat                                   : MPEG-4\nFormat profile                           : Base Media\nCodec ID                                 : isom\nFile size                                : 151 MiB\nDuration                                 : 4mn 48s\nOverall bit rate                         : 4 402 Kbps\nMusicVid name                            : A Rush of Blood\nPerformer                                : Coasts\nGenre                                    : Folk Rock\nContentType                              : Music Video\nRecorded date                            : 2014\nISRC                                     : The Promo Bay\nCopyright                                : Coasts\nCover                                    : Yes\nRating                                   : ***\nMake                                     : MeRaDil\noday                                     : 11-11-2014  UK\nrati                                     : (Binary)\nArtist url                               : http://www.coastsband.com\nrelease                                  : UK - november 11 - 2014\nPart_ID                                  : A Rush of Blood\n\nVideo\nID                                       : 1\nFormat                                   : AVC\nFormat/Info                              : Advanced Video Codec\nFormat profile                           : &lt;a class=&quot;__cf_email__&quot; href=&quot;/cdn-cgi/l/email-protection&quot; data-cfemail=&quot;753d1c121d3539415b45&quot;&gt;[email&amp;#160;protected]&lt;/a&gt;&lt;script cf-hash='f9e31' type=&quot;text/javascript&quot;&gt;\n/* &lt;![CDATA[ */!function(){try{var t=&quot;currentScript&quot;in document?document.currentScript:function(){for(var t=document.getElementsByTagName(&quot;script&quot;),e=t.length;e--;)if(t[e].getAttribute(&quot;cf-hash&quot;))return t[e]}();if(t&amp;&amp;t.previousSibling){var e,r,n,i,c=t.previousSibling,a=c.getAttribute(&quot;data-cfemail&quot;);if(a){for(e=&quot;&quot;,r=parseInt(a.substr(0,2),16),n=2;a.length-n;n+=2)i=parseInt(a.substr(n,2),16)^r,e+=String.fromCharCode(i);e=document.createTextNode(e),c.parentNode.replaceChild(e,c)}}}catch(u){}}();/* ]]&gt; */&lt;/script&gt;\nFormat settings, CABAC                   : Yes\nFormat settings, ReFrames                : 2 frames\nCodec ID                                 : avc1\nCodec ID/Info                            : Advanced Video Coding\nDuration                                 : 4mn 48s\nBit rate                                 : 4 140 Kbps\nWidth                                    : 1 920 pixels\nHeight                                   : 1 080 pixels\nDisplay aspect ratio                     : 16:9\nFrame rate mode                          : Variable\nFrame rate                               : 23.976 fps\nMinimum frame rate                       : 23.974 fps\nMaximum frame rate                       : 23.981 fps\nColor space                              : YUV\nChroma subsampling                       : 4:2:0\nBit depth                                : 8 bits\nScan type                                : Progressive\nBits/(Pixel*Frame)                       : 0.083\nStream size                              : 142 MiB (94%)\n\nAudio\nID                                       : 2\nFormat                                   : AAC\nFormat/Info                              : Advanced Audio Codec\nFormat profile                           : LC\nCodec ID                                 : 40\nDuration                                 : 4mn 48s\nBit rate mode                            : Constant\nBit rate                                 : 256 Kbps\nChannel(s)                               : 2 channels\nChannel positions                        : Front: L R\nSampling rate                            : 44.1 KHz\nCompression mode                         : Lossy\nStream size                              : 8.80 MiB (6%)\n &lt;a href=&quot;\nhttps://thepiratebay.se/user/MeRaDil&quot; rel=&quot;nofollow&quot; target=&quot;_NEW&quot;&gt;\nhttps://thepiratebay.se/user/MeRaDil&lt;/a&gt;\n\nCoasts * Folk Rock * Promo\n\n:)","torrent":{"xt":"urn:btih:5bd3c72df4fe137754eb9efab3360dc89d1572d5","amp;dn":"Coasts+-+A+Rush+of+Blood+%282014.Folk+Rock%29","amp;tr":["udp%3A%2F%2Ftracker.openbittorrent.com%3A80","udp%3A%2F%2Fopen.demonii.com%3A1337","udp%3A%2F%2Ftracker.coppersurfer.tk%3A6969","udp%3A%2F%2Fexodus.desync.com%3A6969"],"infoHash":"5bd3c72df4fe137754eb9efab3360dc89d1572d5","infoHashBuffer":{"type":"Buffer","data":[91,211,199,45,244,254,19,119,84,235,158,250,179,54,13,200,157,21,114,213]},"announce":[],"urlList":[]}}